<?xml version="1.0" encoding="utf-8"?>
<!-- Generator: Adobe Illustrator 25.2.3, SVG Export Plug-In . SVG Version: 6.00 Build 0)  -->
<svg version="1.1" id="Слой_1" xmlns="http://www.w3.org/2000/svg" xmlns:xlink="http://www.w3.org/1999/xlink" x="0px" y="0px"
	 viewBox="0 0 364.5 102.6" style="enable-background:new 0 0 364.5 102.6;" xml:space="preserve">
<style type="text/css">
	.st0{fill:url(#SVGID_1_);}
	.st1{opacity:0.39;fill:url(#SVGID_2_);}
	.st2{fill:url(#SVGID_3_);}
	.st3{opacity:0.48;fill:url(#SVGID_4_);}
	.st4{opacity:0.48;fill:url(#SVGID_5_);}
	.st5{fill:#FD7E14;}
	.st6{fill:#6F34FE;}
</style>
<g>
	
		<image style="overflow:visible;opacity:0.75;" width="111" height="96" xlink:href="BE7FBC60.png"  transform="matrix(1 0 0 1 1.5263 5.4474)">
	</image>
	<g>
		<g>
			<g>
				<linearGradient id="SVGID_1_" gradientUnits="userSpaceOnUse" x1="48.3676" y1="60.6902" x2="68.0597" y2="40.9981">
					<stop  offset="0" style="stop-color:#0077C5"/>
					<stop  offset="0.2742" style="stop-color:#0098DC"/>
					<stop  offset="0.561" style="stop-color:#00B4EF"/>
					<stop  offset="0.8127" style="stop-color:#00C5FB"/>
					<stop  offset="1" style="stop-color:#00CBFF"/>
				</linearGradient>
				<polygon class="st0" points="72.9,45.9 63.2,45.9 63.2,36.1 53.3,36.1 53.3,45.9 43.5,45.9 43.5,55.8 53.3,55.8 53.3,65.6 
					63.2,65.6 63.2,55.8 72.9,55.8 				"/>
				<linearGradient id="SVGID_2_" gradientUnits="userSpaceOnUse" x1="48.3676" y1="60.6902" x2="68.0597" y2="40.9981">
					<stop  offset="0" style="stop-color:#0077C5"/>
					<stop  offset="0.2742" style="stop-color:#0098DC"/>
					<stop  offset="0.561" style="stop-color:#00B4EF"/>
					<stop  offset="0.8127" style="stop-color:#00C5FB"/>
					<stop  offset="1" style="stop-color:#00CBFF"/>
				</linearGradient>
				<path class="st1" d="M68.1,55.8h4.8v-9.9h-9.8v-9.8h-9.9v4.2C56.3,46.9,61.9,52.1,68.1,55.8z"/>
			</g>
			<g>
				<linearGradient id="SVGID_3_" gradientUnits="userSpaceOnUse" x1="16.1775" y1="83.6457" x2="94.3098" y2="5.5134">
					<stop  offset="0" style="stop-color:#009E6B"/>
					<stop  offset="1" style="stop-color:#00E37E"/>
				</linearGradient>
				<path class="st2" d="M71.3,72.5c-2.2,1.1-13,0-13.1,1.3c-0.3,3.7,7,5,9,5.4c8.3,1.7,14.8-3.2,24.5-12.3
					c10-9.4,17.6-23.4,16.7-36C107.2,13.1,91.2,4.1,77,9c-9.3,3.2-14.9,8.4-17.6,11.6c-1.1,1.3-3,1.3-4.1,0
					c-2.7-3.2-8.3-8.4-17.6-11.6C23.3,4.1,7.5,13.6,4.4,30.4C0.8,50.7,14.4,74,37.9,88.5c5.9,3.6,23.8,10.2,32.9,7.5
					c5.9-1.7,20.9-13.5,19.2-15.2c-4.1-4.1-13.9,6.1-21.2,5.6c-6.9-0.5-11.4-1.7-13.7-5.2c-3.8-5.6-3-12.9-4.9-12.3
					c-4.4-1.5-1.4,9.9-5.2,7.6c-15.9-9.6-25.1-25.2-22.7-38.8c2-11.1,12.5-17.4,21.9-14.2c5.5,1.9,9,4.9,11,7c1.1,1.2,2.9,1.2,4,0
					c2-2.1,5.5-5.1,11-7c9.4-3.3,19.9,3.1,21.9,14.2c1.6,8.7-1.7,18.2-8.3,26.4c-2.9-1.1-9.2-4.8-11.1-2c-1.1,1.7,2.7,3,3.2,4.3
					C76.7,68.7,73,71.7,71.3,72.5z"/>
				<linearGradient id="SVGID_4_" gradientUnits="userSpaceOnUse" x1="22.4793" y1="85.1967" x2="94.5199" y2="13.1561">
					<stop  offset="0" style="stop-color:#009E6B"/>
					<stop  offset="1" style="stop-color:#00E37E"/>
				</linearGradient>
				<path class="st3" d="M70.3,91.1c6.3-1,13.1-7.7,19.8-10.1c0-0.1,0-0.1-0.1-0.2c-4.1-4.1-13.9,6.1-21.2,5.6
					c-6.9-0.5-11.4-1.7-13.7-5.2c-3.8-5.6-3-12.9-4.9-12.3c-4.4-1.5-1.4,9.9-5.2,7.6c-15.9-9.6-25.1-25.2-22.7-38.8
					c2-11.1,12.5-17.4,21.9-14.2c2.5,0.9,4.5,1.9,6.2,3c-7-5.2-13.9-9.5-22.8-7.2c-5.8,1.5-11.4,7.6-12.6,13.4
					C8.2,64.6,46.9,94.9,70.3,91.1z"/>
				<linearGradient id="SVGID_5_" gradientUnits="userSpaceOnUse" x1="26.047" y1="93.5152" x2="104.179" y2="15.3831">
					<stop  offset="0" style="stop-color:#009E6B"/>
					<stop  offset="1" style="stop-color:#00E37E"/>
				</linearGradient>
				<path class="st4" d="M108.4,30.9C107.2,13.1,91.2,4.1,77,9c-4.8,1.6-8.5,3.8-11.5,6c0,0.3,12.1-4.3,19.2-2.4
					c14.1,3.7,17.4,16.9,15.4,29.5C98.4,53.1,86,71.3,71.6,76.4c-2.9,1-9.7-0.3-12.3-3.1c-0.6,0.1-1,0.3-1.1,0.5c-0.3,3.7,7,5,9,5.4
					c8.3,1.7,14.8-3.2,24.5-12.3C101.7,57.6,109.3,43.6,108.4,30.9z"/>
			</g>
		</g>
	</g>
</g>
<g>
	<path class="st5" d="M105.4,55.2h12.5c3.2,0,5.6,0.3,7.2,0.8c1.6,0.5,3,1.6,4.2,3.4c1.1,1.7,1.7,3.9,1.7,6.4c0,4.6-2.1,7.6-6.2,9.1
		c5,1.6,7.4,5,7.4,10.4c0,3.1-1,5.7-2.9,8c-2,2.3-5.7,3.4-11.2,3.4h-12.7V55.2z M112.1,72.3h4.3c3.1,0,5.1-0.6,6-1.7
		s1.5-2.6,1.5-4.4c0-2.1-0.6-3.6-1.7-4.5c-1.1-0.9-2.8-1.3-5.2-1.3h-5V72.3z M112.1,91.1h5.5c5.1,0,7.6-2.2,7.6-6.7
		c0-1.7-0.5-3.3-1.6-4.7c-1.1-1.4-3.3-2.1-6.6-2.1h-4.9V91.1z"/>
	<path class="st5" d="M147,55.2h7.7l11.1,41.4h-6.9l-2.6-10.4h-12.1l-2.6,10.4h-6.5L147,55.2z M155,80.8l-4.7-19l-4.7,19H155z"/>
	<path class="st5" d="M170,55.2h6.9v19.7l12.5-19.7h7.3l-10.7,15.2l12.5,26.2H191L181.7,76l-4.9,7v13.6H170V55.2z"/>
	<path class="st5" d="M209.5,55.2h7.7l11.1,41.4h-6.9l-2.6-10.4h-12.1L204,96.6h-6.5L209.5,55.2z M217.4,80.8l-4.7-19l-4.7,19H217.4
		z"/>
	<path class="st5" d="M232.4,55.2h6.9v17.2h12.2V55.2h6.9v41.4h-6.9V78.1h-12.2v18.4h-6.9V55.2z"/>
	<path class="st5" d="M287.1,82.6l6.3,0.9c-1.3,9.2-5.8,13.8-13.5,13.8c-5,0-8.8-1.9-11.2-5.8s-3.7-9-3.7-15.5c0-7,1.3-12.3,3.9-16
		c2.6-3.7,6.4-5.6,11.3-5.6c7.6,0,12,4.7,13.4,14.1l-6.4,0.9c-0.7-6.3-3-9.4-7-9.4c-5.3,0-7.9,5.4-7.9,16.3
		c0,10.2,2.6,15.2,7.9,15.2c2.1,0,3.7-0.8,4.7-2.3C285.9,87.8,286.6,85.6,287.1,82.6z"/>
	<path class="st5" d="M305.9,92.9v3.7h-6.9V55.2h6.9v23.2c0,0.3-0.1,2.2-0.2,5.7c0.8-2.4,2-5,3.6-7.7l9.7-17.2v-4h6.9v41.4h-6.9
		V75.1c0-0.2,0.1-2.6,0.2-7.1c-0.9,2.4-2.1,4.9-3.6,7.7L305.9,92.9z"/>
	<path class="st5" d="M340.6,92.9v3.7h-6.9V55.2h6.9v23.2c0,0.3-0.1,2.2-0.2,5.7c0.8-2.4,2-5,3.6-7.7l9.7-17.2v-4h6.9v41.4h-6.9
		V75.1c0-0.2,0.1-2.6,0.2-7.1c-0.9,2.4-2.1,4.9-3.6,7.7L340.6,92.9z"/>
</g>
<g>
	<path class="st6" d="M121.4,14.2h6l8.7,32.2h-5.4l-2-8.1h-9.5l-2,8.1h-5.1L121.4,14.2z M127.5,34.1l-3.7-14.8l-3.7,14.8H127.5z"/>
	<path class="st6" d="M136.8,14.2h5.3v13.4h9.5V14.2h5.3v32.2h-5.3V32.1h-9.5v14.4h-5.3V14.2z"/>
	<path class="st6" d="M182.9,30.3c0,5.5-1,9.7-3,12.5c-2,2.8-4.8,4.2-8.6,4.2c-3.8,0-6.6-1.4-8.6-4.2c-2-2.8-3-7-3-12.5
		c0-5.5,1-9.6,3-12.5c2-2.8,4.9-4.2,8.6-4.2c3.7,0,6.6,1.4,8.6,4.2C181.9,20.6,182.9,24.8,182.9,30.3z M177.3,30.3
		c0-3.8-0.4-6.8-1.3-9c-0.9-2.2-2.4-3.3-4.7-3.3s-3.8,1.1-4.7,3.3c-0.9,2.2-1.3,5.2-1.3,9c0,3.8,0.4,6.7,1.3,9
		c0.9,2.2,2.4,3.4,4.7,3.4c2.2,0,3.7-1.1,4.6-3.2C176.8,37.2,177.3,34.2,177.3,30.3z"/>
	<path class="st6" d="M198.5,41.6h-2.8l-4.6-7.6l4.6-7.6h2.8l-2.6,7.6L198.5,41.6z M205.9,41.7h-2.8l-4.6-7.7l4.6-7.7h2.8l-2.6,7.7
		L205.9,41.7z"/>
	<path class="st6" d="M207.9,41.9l7-27.7h7.8l6.4,27.7h1.8v11.4h-3.7l-0.6-6.9h-16.2l-0.6,6.9h-3.7V41.9H207.9z M212.7,41.9h10.9
		L219,19.6h-1.3L212.7,41.9z"/>
	<path class="st6" d="M249.5,34.3c0,8.5-3.1,12.8-9.4,12.8c-2.9,0-5.2-1-6.8-3.1c-1.7-2.1-2.5-5.2-2.5-9.4c0-8.3,3.1-12.5,9.4-12.5
		c2.9,0,5.1,1,6.8,3C248.6,27.1,249.5,30.1,249.5,34.3z M244.2,34.5c0-3.3-0.4-5.6-1.1-6.9c-0.7-1.2-1.8-1.9-3-1.9
		c-2.8,0-4.1,2.9-4.1,8.8c0,3,0.3,5.2,1,6.6c0.6,1.4,1.7,2.1,3.2,2.1c1.5,0,2.5-0.7,3.2-2.2C243.9,39.6,244.2,37.4,244.2,34.5z"/>
	<path class="st6" d="M251.7,46.4V22.6h10.7c2.4,0,4,0.6,4.9,1.8c0.9,1.2,1.3,2.6,1.3,4.1c0,2.6-1.4,4.4-4.2,5.5c3.3,1,4.9,3,4.9,6
		c0,1.9-0.5,3.5-1.6,4.7c-1,1.2-2.5,1.8-4.4,1.8H251.7z M256.6,32.8h4.5c2,0,3-1.1,3-3.4c0-1.3-0.2-2.2-0.7-2.7
		c-0.5-0.5-1.2-0.8-2.3-0.8h-4.5V32.8z M256.6,42.7h4.8c2.1,0,3.1-1.2,3.1-3.6c0-2.5-1-3.7-3.1-3.7h-4.8V42.7z"/>
	<path class="st6" d="M288.8,35.2h-13.5c0,3.2,0.4,5.4,1.3,6.4s2,1.6,3.3,1.6c2.2,0,3.6-1.5,4.2-4.4l4.5,0.6
		c-1.2,5.1-4.1,7.6-8.8,7.6c-2.9,0-5.2-1-6.9-3.1c-1.7-2.1-2.6-5.1-2.6-9.1c0-4.1,0.9-7.3,2.6-9.5c1.7-2.2,4-3.4,6.9-3.4
		c2,0,3.7,0.6,5.1,1.7c1.4,1.1,2.4,2.6,2.9,4.4S288.8,32.3,288.8,35.2z M283.8,31.9c0-4.2-1.4-6.3-4.1-6.3c-2.6,0-4,2.1-4.2,6.3
		H283.8z"/>
	<path class="st6" d="M290.5,22.6h4.5v3.9c1.2-2.9,3.2-4.3,5.9-4.3c2.4,0,4.3,1.1,5.8,3.2c1.5,2.1,2.2,5.1,2.2,9
		c0,3.5-0.7,6.4-2,8.9c-1.3,2.4-3.4,3.7-6.2,3.7c-2.3,0-4-1-5.3-2.9v10.6h-4.9V22.6z M295.4,36.4c0,1.5,0.1,2.7,0.3,3.6
		s0.7,1.6,1.4,2.2c0.7,0.6,1.5,0.9,2.4,0.9c2.8,0,4.2-2.9,4.2-8.8c0-5.7-1.4-8.5-4.1-8.5c-1.2,0-2.2,0.6-3,1.7
		c-0.8,1.2-1.2,2.8-1.2,5V36.4z"/>
	<path class="st6" d="M316.1,44v2.4h-4.9V22.6h4.9v10.4c0,2.5-0.1,4.2-0.2,4.9c0.7-1.5,1.5-3,2.5-4.6l4.9-7.6v-3.1h4.9v23.9h-4.9
		v-9.8c0-2.6,0.1-4.3,0.2-4.9c-0.7,1.7-1.6,3.5-2.8,5.3L316.1,44z"/>
	<path class="st6" d="M348.9,35.2h-13.5c0,3.2,0.4,5.4,1.3,6.4s2,1.6,3.3,1.6c2.2,0,3.6-1.5,4.2-4.4l4.5,0.6
		c-1.2,5.1-4.1,7.6-8.8,7.6c-2.9,0-5.2-1-6.9-3.1c-1.7-2.1-2.6-5.1-2.6-9.1c0-4.1,0.9-7.3,2.6-9.5c1.7-2.2,4-3.4,6.9-3.4
		c2,0,3.7,0.6,5.1,1.7c1.4,1.1,2.4,2.6,2.9,4.4S348.9,32.3,348.9,35.2z M343.9,31.9c0-4.2-1.4-6.3-4.1-6.3c-2.6,0-4,2.1-4.2,6.3
		H343.9z"/>
	<path class="st6" d="M349.8,26.3h2.8l4.6,7.7l-4.6,7.7h-2.8l2.6-7.7L349.8,26.3z M357.2,26.3h2.8l4.5,7.7l-4.5,7.7h-2.8l2.6-7.7
		L357.2,26.3z"/>
</g>
</svg>
